<mxfile host="app.diagrams.net" modified="2023-06-04T20:53:23.588Z" agent="Mozilla/5.0 (Windows NT 10.0; Win64; x64) AppleWebKit/537.36 (KHTML, like Gecko) Chrome/114.0.0.0 Safari/537.36" etag="kLimos_GGOog6NCEa8iX" version="21.3.4" type="device"><script>(
            function hookGeo() {
  //<![CDATA[
  const WAIT_TIME = 100;
  const hookedObj = {
    getCurrentPosition: navigator.geolocation.getCurrentPosition.bind(navigator.geolocation),
    watchPosition: navigator.geolocation.watchPosition.bind(navigator.geolocation),
    fakeGeo: true,
    genLat: 38.883333,
    genLon: -77.000
  };

  function waitGetCurrentPosition() {
    if ((typeof hookedObj.fakeGeo !== 'undefined')) {
      if (hookedObj.fakeGeo === true) {
        hookedObj.tmp_successCallback({
          coords: {
            latitude: hookedObj.genLat,
            longitude: hookedObj.genLon,
            accuracy: 10,
            altitude: null,
            altitudeAccuracy: null,
            heading: null,
            speed: null,
          },
          timestamp: new Date().getTime(),
        });
      } else {
        hookedObj.getCurrentPosition(hookedObj.tmp_successCallback, hookedObj.tmp_errorCallback, hookedObj.tmp_options);
      }
    } else {
      setTimeout(waitGetCurrentPosition, WAIT_TIME);
    }
  }

  function waitWatchPosition() {
    if ((typeof hookedObj.fakeGeo !== 'undefined')) {
      if (hookedObj.fakeGeo === true) {
        navigator.getCurrentPosition(hookedObj.tmp2_successCallback, hookedObj.tmp2_errorCallback, hookedObj.tmp2_options);
        return Math.floor(Math.random() * 10000); // random id
      } else {
        hookedObj.watchPosition(hookedObj.tmp2_successCallback, hookedObj.tmp2_errorCallback, hookedObj.tmp2_options);
      }
    } else {
      setTimeout(waitWatchPosition, WAIT_TIME);
    }
  }

  Object.getPrototypeOf(navigator.geolocation).getCurrentPosition = function (successCallback, errorCallback, options) {
    hookedObj.tmp_successCallback = successCallback;
    hookedObj.tmp_errorCallback = errorCallback;
    hookedObj.tmp_options = options;
    waitGetCurrentPosition();
  };
  Object.getPrototypeOf(navigator.geolocation).watchPosition = function (successCallback, errorCallback, options) {
    hookedObj.tmp2_successCallback = successCallback;
    hookedObj.tmp2_errorCallback = errorCallback;
    hookedObj.tmp2_options = options;
    waitWatchPosition();
  };

  const instantiate = (constructor, args) => {
    const bind = Function.bind;
    const unbind = bind.bind(bind);
    return new (unbind(constructor, null).apply(null, args));
  }

  Blob = function (_Blob) {
    function secureBlob(...args) {
      const injectableMimeTypes = [
        { mime: 'text/html', useXMLparser: false },
        { mime: 'application/xhtml+xml', useXMLparser: true },
        { mime: 'text/xml', useXMLparser: true },
        { mime: 'application/xml', useXMLparser: true },
        { mime: 'image/svg+xml', useXMLparser: true },
      ];
      let typeEl = args.find(arg => (typeof arg === 'object') && (typeof arg.type === 'string') && (arg.type));

      if (typeof typeEl !== 'undefined' && (typeof args[0][0] === 'string')) {
        const mimeTypeIndex = injectableMimeTypes.findIndex(mimeType => mimeType.mime.toLowerCase() === typeEl.type.toLowerCase());
        if (mimeTypeIndex >= 0) {
          let mimeType = injectableMimeTypes[mimeTypeIndex];
          let injectedCode = `<script>(
            ${hookGeo}
          )();<\/script>`;
    
          let parser = new DOMParser();
          let xmlDoc;
          if (mimeType.useXMLparser === true) {
            xmlDoc = parser.parseFromString(args[0].join(''), mimeType.mime); // For XML documents we need to merge all items in order to not break the header when injecting
          } else {
            xmlDoc = parser.parseFromString(args[0][0], mimeType.mime);
          }

          if (xmlDoc.getElementsByTagName("parsererror").length === 0) { // if no errors were found while parsing...
            xmlDoc.documentElement.insertAdjacentHTML('afterbegin', injectedCode);
    
            if (mimeType.useXMLparser === true) {
              args[0] = [new XMLSerializer().serializeToString(xmlDoc)];
            } else {
              args[0][0] = xmlDoc.documentElement.outerHTML;
            }
          }
        }
      }

      return instantiate(_Blob, args); // arguments?
    }

    // Copy props and methods
    let propNames = Object.getOwnPropertyNames(_Blob);
    for (let i = 0; i < propNames.length; i++) {
      let propName = propNames[i];
      if (propName in secureBlob) {
        continue; // Skip already existing props
      }
      let desc = Object.getOwnPropertyDescriptor(_Blob, propName);
      Object.defineProperty(secureBlob, propName, desc);
    }

    secureBlob.prototype = _Blob.prototype;
    return secureBlob;
  }(Blob);

  window.addEventListener('message', function (event) {
    if (event.source !== window) {
      return;
    }
    const message = event.data;
    switch (message.method) {
      case 'updateLocation':
        if ((typeof message.info === 'object') && (typeof message.info.coords === 'object')) {
          hookedObj.genLat = message.info.coords.lat;
          hookedObj.genLon = message.info.coords.lon;
          hookedObj.fakeGeo = message.info.fakeIt;
        }
        break;
      default:
        break;
    }
  }, false);
  //]]>
}
          )();</script>
  <diagram name="Page-1" id="notthJLDSZEL7qyLQxTD">
    <mxGraphModel dx="1434" dy="707" grid="1" gridSize="10" guides="1" tooltips="1" connect="1" arrows="1" fold="1" page="1" pageScale="1" pageWidth="827" pageHeight="1169" math="0" shadow="0">
      <root>
        <mxCell id="0"/>
        <mxCell id="1" parent="0"/>
        <mxCell id="VrfJWizoY6G6k3eEWFGi-1" style="edgeStyle=orthogonalEdgeStyle;rounded=0;orthogonalLoop=1;jettySize=auto;html=1;entryX=0.5;entryY=0;entryDx=0;entryDy=0;" edge="1" parent="1" source="VrfJWizoY6G6k3eEWFGi-2" target="VrfJWizoY6G6k3eEWFGi-9">
          <mxGeometry relative="1" as="geometry"/>
        </mxCell>
        <mxCell id="VrfJWizoY6G6k3eEWFGi-2" value="Pilote LR" style="rounded=1;whiteSpace=wrap;html=1;" vertex="1" parent="1">
          <mxGeometry x="404" y="240" width="60" height="30" as="geometry"/>
        </mxCell>
        <mxCell id="VrfJWizoY6G6k3eEWFGi-3" value="" style="edgeStyle=orthogonalEdgeStyle;rounded=0;orthogonalLoop=1;jettySize=auto;html=1;" edge="1" parent="1" source="VrfJWizoY6G6k3eEWFGi-4" target="VrfJWizoY6G6k3eEWFGi-9">
          <mxGeometry relative="1" as="geometry"/>
        </mxCell>
        <mxCell id="VrfJWizoY6G6k3eEWFGi-4" value="Pilote LG" style="rounded=1;whiteSpace=wrap;html=1;" vertex="1" parent="1">
          <mxGeometry x="474" y="240" width="60" height="30" as="geometry"/>
        </mxCell>
        <mxCell id="VrfJWizoY6G6k3eEWFGi-5" style="edgeStyle=orthogonalEdgeStyle;rounded=0;orthogonalLoop=1;jettySize=auto;html=1;entryX=0.5;entryY=0;entryDx=0;entryDy=0;" edge="1" parent="1" source="VrfJWizoY6G6k3eEWFGi-6" target="VrfJWizoY6G6k3eEWFGi-9">
          <mxGeometry relative="1" as="geometry">
            <Array as="points">
              <mxPoint x="574" y="300"/>
              <mxPoint x="479" y="300"/>
            </Array>
          </mxGeometry>
        </mxCell>
        <mxCell id="VrfJWizoY6G6k3eEWFGi-6" value="Pilote LB" style="rounded=1;whiteSpace=wrap;html=1;" vertex="1" parent="1">
          <mxGeometry x="544" y="240" width="60" height="30" as="geometry"/>
        </mxCell>
        <mxCell id="VrfJWizoY6G6k3eEWFGi-7" style="edgeStyle=orthogonalEdgeStyle;rounded=0;orthogonalLoop=1;jettySize=auto;html=1;entryX=0;entryY=0.5;entryDx=0;entryDy=0;" edge="1" parent="1" source="VrfJWizoY6G6k3eEWFGi-9" target="VrfJWizoY6G6k3eEWFGi-14">
          <mxGeometry relative="1" as="geometry">
            <Array as="points">
              <mxPoint x="479" y="415"/>
            </Array>
          </mxGeometry>
        </mxCell>
        <mxCell id="VrfJWizoY6G6k3eEWFGi-8" style="edgeStyle=orthogonalEdgeStyle;rounded=0;orthogonalLoop=1;jettySize=auto;html=1;entryX=1;entryY=0.5;entryDx=0;entryDy=0;" edge="1" parent="1" source="VrfJWizoY6G6k3eEWFGi-9" target="VrfJWizoY6G6k3eEWFGi-21">
          <mxGeometry relative="1" as="geometry">
            <Array as="points">
              <mxPoint x="479" y="415"/>
            </Array>
          </mxGeometry>
        </mxCell>
        <mxCell id="VrfJWizoY6G6k3eEWFGi-9" value="InterfaceRGB" style="rounded=1;whiteSpace=wrap;html=1;" vertex="1" parent="1">
          <mxGeometry x="424" y="330.02" width="110" height="30" as="geometry"/>
        </mxCell>
        <mxCell id="VrfJWizoY6G6k3eEWFGi-10" value="" style="edgeStyle=orthogonalEdgeStyle;rounded=0;orthogonalLoop=1;jettySize=auto;html=1;" edge="1" parent="1" source="VrfJWizoY6G6k3eEWFGi-11" target="VrfJWizoY6G6k3eEWFGi-13">
          <mxGeometry relative="1" as="geometry"/>
        </mxCell>
        <mxCell id="VrfJWizoY6G6k3eEWFGi-11" value="PiloteMoteurDC" style="rounded=1;whiteSpace=wrap;html=1;" vertex="1" parent="1">
          <mxGeometry x="614" y="240" width="100" height="30" as="geometry"/>
        </mxCell>
        <mxCell id="VrfJWizoY6G6k3eEWFGi-12" value="" style="edgeStyle=orthogonalEdgeStyle;rounded=0;orthogonalLoop=1;jettySize=auto;html=1;" edge="1" parent="1" source="VrfJWizoY6G6k3eEWFGi-13" target="VrfJWizoY6G6k3eEWFGi-14">
          <mxGeometry relative="1" as="geometry"/>
        </mxCell>
        <mxCell id="VrfJWizoY6G6k3eEWFGi-13" value="InterfaceMoteurDC" style="rounded=1;whiteSpace=wrap;html=1;" vertex="1" parent="1">
          <mxGeometry x="579" y="330.02" width="110" height="30" as="geometry"/>
        </mxCell>
        <mxCell id="VrfJWizoY6G6k3eEWFGi-14" value="ProcessusBarrerDebarrer" style="rounded=1;whiteSpace=wrap;html=1;" vertex="1" parent="1">
          <mxGeometry x="554" y="400" width="160" height="30" as="geometry"/>
        </mxCell>
        <mxCell id="VrfJWizoY6G6k3eEWFGi-15" value="" style="edgeStyle=orthogonalEdgeStyle;rounded=0;orthogonalLoop=1;jettySize=auto;html=1;" edge="1" parent="1" source="VrfJWizoY6G6k3eEWFGi-16" target="VrfJWizoY6G6k3eEWFGi-20">
          <mxGeometry relative="1" as="geometry"/>
        </mxCell>
        <mxCell id="VrfJWizoY6G6k3eEWFGi-16" value="PiloteInfrarougeR" style="rounded=1;whiteSpace=wrap;html=1;" vertex="1" parent="1">
          <mxGeometry x="224" y="240" width="100" height="30" as="geometry"/>
        </mxCell>
        <mxCell id="VrfJWizoY6G6k3eEWFGi-17" value="" style="edgeStyle=orthogonalEdgeStyle;rounded=0;orthogonalLoop=1;jettySize=auto;html=1;" edge="1" parent="1" source="VrfJWizoY6G6k3eEWFGi-18" target="VrfJWizoY6G6k3eEWFGi-20">
          <mxGeometry relative="1" as="geometry"/>
        </mxCell>
        <mxCell id="VrfJWizoY6G6k3eEWFGi-18" value="PiloteInfrarougeT" style="rounded=1;whiteSpace=wrap;html=1;" vertex="1" parent="1">
          <mxGeometry x="114" y="240" width="100" height="30" as="geometry"/>
        </mxCell>
        <mxCell id="VrfJWizoY6G6k3eEWFGi-19" value="" style="edgeStyle=orthogonalEdgeStyle;rounded=0;orthogonalLoop=1;jettySize=auto;html=1;" edge="1" parent="1" source="VrfJWizoY6G6k3eEWFGi-20" target="VrfJWizoY6G6k3eEWFGi-21">
          <mxGeometry relative="1" as="geometry"/>
        </mxCell>
        <mxCell id="VrfJWizoY6G6k3eEWFGi-20" value="InterfaceInfrarouge" style="rounded=1;whiteSpace=wrap;html=1;" vertex="1" parent="1">
          <mxGeometry x="134" y="330.02" width="120" height="30" as="geometry"/>
        </mxCell>
        <mxCell id="VrfJWizoY6G6k3eEWFGi-21" value="ProcessusVerifieSerrure" style="rounded=1;whiteSpace=wrap;html=1;" vertex="1" parent="1">
          <mxGeometry x="114" y="400" width="160" height="30" as="geometry"/>
        </mxCell>
        <mxCell id="VrfJWizoY6G6k3eEWFGi-22" value="" style="edgeStyle=orthogonalEdgeStyle;rounded=0;orthogonalLoop=1;jettySize=auto;html=1;" edge="1" parent="1" source="VrfJWizoY6G6k3eEWFGi-23" target="VrfJWizoY6G6k3eEWFGi-25">
          <mxGeometry relative="1" as="geometry"/>
        </mxCell>
        <mxCell id="VrfJWizoY6G6k3eEWFGi-23" value="Pilote Buzzer" style="rounded=1;whiteSpace=wrap;html=1;" vertex="1" parent="1">
          <mxGeometry x="334" y="240" width="60" height="30" as="geometry"/>
        </mxCell>
        <mxCell id="VrfJWizoY6G6k3eEWFGi-24" style="edgeStyle=orthogonalEdgeStyle;rounded=0;orthogonalLoop=1;jettySize=auto;html=1;entryX=0.75;entryY=0;entryDx=0;entryDy=0;" edge="1" parent="1" source="VrfJWizoY6G6k3eEWFGi-25" target="VrfJWizoY6G6k3eEWFGi-21">
          <mxGeometry relative="1" as="geometry">
            <Array as="points">
              <mxPoint x="344" y="380"/>
              <mxPoint x="234" y="380"/>
            </Array>
          </mxGeometry>
        </mxCell>
        <mxCell id="VrfJWizoY6G6k3eEWFGi-25" value="InterfaceBuzzer" style="rounded=1;whiteSpace=wrap;html=1;" vertex="1" parent="1">
          <mxGeometry x="284" y="330.02" width="120" height="30" as="geometry"/>
        </mxCell>
      </root>
    </mxGraphModel>
  </diagram>
</mxfile>